<svg xmlns="http://www.w3.org/2000/svg" width="400.0482482910156" height="380.8313293457031" viewBox="-261.08367919921875 -168.70175170898438 400.0482482910156 380.8313293457031"><title>Neo4j Graph Visualization</title><desc>Created using Neo4j (http://www.neo4j.com/)</desc><g class="layer relationships"><g class="relationship" transform="translate(-232.08370181328405 29.32821429979691) rotate(302.31884198503275)"><path class="b-outline" fill="#A5ABB6" stroke="none" d="M 24.018736134675446,-6.953439040707552 L 24.277555179777966,-5.987513214418485 A 156.5503300705845 156.5503300705845 0 0 1 32.74756531834743,-8.006355216556955 L 32.54285034402362,-8.985176844478815 A 157.5503300705845 157.5503300705845 0 0 0 24.018736134675446,-6.953439040707552 Z M 93.02883678255355,-9.77150628645225 L 92.84963643019141,-8.787693685540233 A 156.5503300705845 156.5503300705845 0 0 1 101.36926590243972,-6.989720261747257 L 100.66840176947714,-4.0727373226256365 L 108.29237011588394,-5.84053444135484 L 102.3037514130565,-10.87903084724275 L 101.60288728009392,-7.96204790812113 A 157.5503300705845 157.5503300705845 0 0 0 93.02883678255355,-9.77150628645225"/><text text-anchor="middle" pointer-events="none" font-size="8px" fill="#000000" x="62.754250167232925" y="-8.808566892618728" font-family="Helvetica Neue, Helvetica, Arial, sans-serif">HUSBAND_OF</text></g><g class="relationship" transform="translate(-161.19142544398255 -82.73067201309135) rotate(482.31884198503275)"><path class="b-outline" fill="#A5ABB6" stroke="none" d="M 24.018736134675446,-6.953439040707552 L 24.277555179777966,-5.987513214418485 A 156.5503300705845 156.5503300705845 0 0 1 42.12944624903075,-9.672261512778732 L 41.984660122678406,-10.66172448713192 A 157.5503300705845 157.5503300705845 0 0 0 24.018736134675446,-6.953439040707552 Z M 83.54663437368978,-11.20203813570447 L 83.42761924851577,-10.209145694409955 A 156.5503300705845 156.5503300705845 0 0 1 101.36926590243972,-6.989720261747257 L 100.66840176947714,-4.0727373226256365 L 108.29237011588394,-5.84053444135484 L 102.3037514130565,-10.87903084724275 L 101.60288728009392,-7.96204790812113 A 157.5503300705845 157.5503300705845 0 0 0 83.54663437368978,-11.20203813570447"/><text text-anchor="middle" pointer-events="none" font-size="8px" fill="#000000" x="62.754250167232925" y="-8.808566892618728" transform="rotate(180 62.754250167232925 -11.808566892618728)" font-family="Helvetica Neue, Helvetica, Arial, sans-serif">WIFE_OF</text></g><g class="relationship" transform="translate(-232.08370181328405 29.32821429979691) rotate(337.9439389994725)"><path class="b-outline" fill="#A5ABB6" stroke="none" d="M 25 0.5 L 95.55091020615188 0.5 L 95.55091020615188 -0.5 L 25 -0.5 Z M 148.96497270615188 0.5 L 219.51588291230377 0.5 L 219.51588291230377 3.5 L 226.51588291230377 0 L 219.51588291230377 -3.5 L 219.51588291230377 -0.5 L 148.96497270615188 -0.5 Z"/><text text-anchor="middle" pointer-events="none" font-size="8px" fill="#000000" x="122.25794145615188" y="3" font-family="Helvetica Neue, Helvetica, Arial, sans-serif">PARENT_OF</text></g><g class="relationship" transform="translate(-232.08370181328405 29.32821429979691) rotate(407.55118402156575)"><path class="b-outline" fill="#A5ABB6" stroke="none" d="M 25 0.5 L 43.679093516761654 0.5 L 43.679093516761654 -0.5 L 25 -0.5 Z M 97.09315601676165 0.5 L 115.77224953352331 0.5 L 115.77224953352331 3.5 L 122.77224953352331 0 L 115.77224953352331 -3.5 L 115.77224953352331 -0.5 L 97.09315601676165 -0.5 Z"/><text text-anchor="middle" pointer-events="none" font-size="8px" fill="#000000" x="70.38612476676165" y="3" font-family="Helvetica Neue, Helvetica, Arial, sans-serif">PARENT_OF</text></g><g class="relationship" transform="translate(-161.19142544398255 -82.73067201309135) rotate(366.19610911098175)"><path class="b-outline" fill="#A5ABB6" stroke="none" d="M 25 0.5 L 51.37800883836614 0.5 L 51.37800883836614 -0.5 L 25 -0.5 Z M 104.79207133836614 0.5 L 131.17008017673228 0.5 L 131.17008017673228 3.5 L 138.17008017673228 0 L 131.17008017673228 -3.5 L 131.17008017673228 -0.5 L 104.79207133836614 -0.5 Z"/><text text-anchor="middle" pointer-events="none" font-size="8px" fill="#000000" x="78.08504008836614" y="3" font-family="Helvetica Neue, Helvetica, Arial, sans-serif">PARENT_OF</text></g><g class="relationship" transform="translate(-161.19142544398255 -82.73067201309135) rotate(442.5672972608785)"><path class="b-outline" fill="#A5ABB6" stroke="none" d="M 25 0.5 L 81.2783044241513 0.5 L 81.2783044241513 -0.5 L 25 -0.5 Z M 134.69236692415132 0.5 L 190.9706713483026 0.5 L 190.9706713483026 3.5 L 197.9706713483026 0 L 190.9706713483026 -3.5 L 190.9706713483026 -0.5 L 134.69236692415132 -0.5 Z"/><text text-anchor="middle" pointer-events="none" font-size="8px" fill="#000000" x="107.9853356741513" y="3" font-family="Helvetica Neue, Helvetica, Arial, sans-serif">PARENT_OF</text></g><g class="relationship" transform="translate(1.025463388313284 -65.11942440107322) rotate(483.2424845854497)"><path class="b-outline" fill="#A5ABB6" stroke="none" d="M 24.018736134675446,-6.953439040707552 L 24.277555179777966,-5.987513214418485 A 373.05007727478755 373.05007727478755 0 0 1 91.63021579128446,-17.554350297393796 L 91.55194264260295,-18.551282248028087 A 374.05007727478755 374.05007727478755 0 0 0 24.018736134675446,-6.953439040707552 Z M 144.70183727509536,-18.936361301908562 L 144.63801743179104,-17.93839986597999 A 373.05007727478755 373.05007727478755 0 0 1 212.151205615542,-7.348686327913926 L 211.41681746320168,-4.439962545616582 L 219.06062579962588,-6.119901269502729 L 213.13038981866245,-11.226984704310386 L 212.39600166632212,-8.31826092201304 A 374.05007727478755 374.05007727478755 0 0 0 144.70183727509536,-18.936361301908562"/><text text-anchor="middle" pointer-events="none" font-size="8px" fill="#000000" x="118.12366397731974" y="-16.18908249909026" transform="rotate(180 118.12366397731974 -19.18908249909026)" font-family="Helvetica Neue, Helvetica, Arial, sans-serif">SIBLING_OF</text></g><g class="relationship" transform="translate(-132.3475843878307 138.36648562273223) rotate(303.2424845854497)"><path class="b-outline" fill="#A5ABB6" stroke="none" d="M 24.018736134675446,-6.953439040707552 L 24.277555179777966,-5.987513214418485 A 373.05007727478755 373.05007727478755 0 0 1 91.63021579128446,-17.554350297393796 L 91.55194264260295,-18.551282248028087 A 374.05007727478755 374.05007727478755 0 0 0 24.018736134675446,-6.953439040707552 Z M 144.70183727509536,-18.936361301908562 L 144.63801743179104,-17.93839986597999 A 373.05007727478755 373.05007727478755 0 0 1 212.151205615542,-7.348686327913926 L 211.41681746320168,-4.439962545616582 L 219.06062579962588,-6.119901269502729 L 213.13038981866245,-11.226984704310386 L 212.39600166632212,-8.31826092201304 A 374.05007727478755 374.05007727478755 0 0 0 144.70183727509536,-18.936361301908562"/><text text-anchor="middle" pointer-events="none" font-size="8px" fill="#000000" x="118.12366397731974" y="-16.18908249909026" font-family="Helvetica Neue, Helvetica, Arial, sans-serif">SIBLING_OF</text></g><g class="relationship" transform="translate(1.025463388313284 -65.11942440107322) rotate(412.6849431249389)"><path class="b-outline" fill="#A5ABB6" stroke="none" d="M 25 0.5 L 39.2647336400065 0.5 L 39.2647336400065 -0.5 L 25 -0.5 Z M 91.4873898900065 0.5 L 105.752123530013 0.5 L 105.752123530013 3.5 L 112.752123530013 0 L 105.752123530013 -3.5 L 105.752123530013 -0.5 L 91.4873898900065 -0.5 Z"/><text text-anchor="middle" pointer-events="none" font-size="8px" fill="#000000" x="65.3760617650065" y="3" font-family="Helvetica Neue, Helvetica, Arial, sans-serif">OWNER_OF</text></g><g class="relationship" transform="translate(-132.3475843878307 138.36648562273223) rotate(383.1357786135502)"><path class="b-outline" fill="#A5ABB6" stroke="none" d="M 25 0.5 L 27.352007274160833 0.5 L 27.352007274160833 -0.5 L 25 -0.5 Z M 79.57466352416083 0.5 L 81.92667079832167 0.5 L 81.92667079832167 3.5 L 88.92667079832167 0 L 81.92667079832167 -3.5 L 81.92667079832167 -0.5 L 79.57466352416083 -0.5 Z"/><text text-anchor="middle" pointer-events="none" font-size="8px" fill="#000000" x="53.46333539916083" y="3" font-family="Helvetica Neue, Helvetica, Arial, sans-serif">OWNER_OF</text></g><g class="relationship" transform="translate(109.96456265110447 -117.44188895634738) rotate(187.20480539040614)"><path class="b-outline" fill="#A5ABB6" stroke="none" d="M 24.018736134675446,-6.953439040707552 L 24.277555179777966,-5.987513214418485 A 244.7356634833751 244.7356634833751 0 0 1 56.20737171824452,-12.3023745950928 L 56.07901921849138,-13.294103205049737 A 245.7356634833751 245.7356634833751 0 0 0 24.018736134675446,-6.953439040707552 Z M 114.36226173080277,-13.867205985067642 L 114.25343562291658,-12.873145182982427 A 244.7356634833751 244.7356634833751 0 0 1 146.3012550761205,-7.187379910645834 L 145.5819306221057,-4.274894317573089 L 153.2169422022927,-5.994370450123405 L 147.26035434814025,-11.070694034742827 L 146.54102989412544,-8.158208441670082 A 245.7356634833751 245.7356634833751 0 0 0 114.36226173080277,-13.867205985067642"/><text text-anchor="middle" pointer-events="none" font-size="8px" fill="#000000" x="85.20850481168208" y="-11.814823774303363" transform="rotate(180 85.20850481168208 -14.814823774303363)" font-family="Helvetica Neue, Helvetica, Arial, sans-serif">MARRIED_TO</text></g><g class="relationship" transform="translate(-66.12168333692924 -139.70175914651298) rotate(367.20480539040614)"><path class="b-outline" fill="#A5ABB6" stroke="none" d="M 24.018736134675446,-6.953439040707552 L 24.277555179777966,-5.987513214418485 A 244.7356634833751 244.7356634833751 0 0 1 56.20737171824452,-12.3023745950928 L 56.07901921849138,-13.294103205049737 A 245.7356634833751 245.7356634833751 0 0 0 24.018736134675446,-6.953439040707552 Z M 114.36226173080277,-13.867205985067642 L 114.25343562291658,-12.873145182982427 A 244.7356634833751 244.7356634833751 0 0 1 146.3012550761205,-7.187379910645834 L 145.5819306221057,-4.274894317573089 L 153.2169422022927,-5.994370450123405 L 147.26035434814025,-11.070694034742827 L 146.54102989412544,-8.158208441670082 A 245.7356634833751 245.7356634833751 0 0 0 114.36226173080277,-13.867205985067642"/><text text-anchor="middle" pointer-events="none" font-size="8px" fill="#000000" x="85.20850481168208" y="-11.814823774303363" font-family="Helvetica Neue, Helvetica, Arial, sans-serif">MARRIED_TO</text></g><g class="relationship" transform="translate(-214.91587806087233 176.5343494964452) rotate(263.3479654692271)"><path class="b-outline" fill="#A5ABB6" stroke="none" d="M 25 0.5 L 43.894892496836306 0.5 L 43.894892496836306 -0.5 L 25 -0.5 Z M 97.3089549968363 0.5 L 116.20384749367261 0.5 L 116.20384749367261 3.5 L 123.20384749367261 0 L 116.20384749367261 -3.5 L 116.20384749367261 -0.5 L 97.3089549968363 -0.5 Z"/><text text-anchor="middle" pointer-events="none" font-size="8px" fill="#000000" x="70.6019237468363" y="3" transform="rotate(180 70.6019237468363 0)" font-family="Helvetica Neue, Helvetica, Arial, sans-serif">PARENT_OF</text></g><g class="relationship" transform="translate(-2.198802579253936 120.70922537695458) rotate(201.67820043661152)"><path class="b-outline" fill="#A5ABB6" stroke="none" d="M 25 0.5 L 93.48366775494114 0.5 L 93.48366775494114 -0.5 L 25 -0.5 Z M 146.89773025494114 0.5 L 215.38139800988228 0.5 L 215.38139800988228 3.5 L 222.38139800988228 0 L 215.38139800988228 -3.5 L 215.38139800988228 -0.5 L 146.89773025494114 -0.5 Z"/><text text-anchor="middle" pointer-events="none" font-size="8px" fill="#000000" x="120.19069900494114" y="3" transform="rotate(180 120.19069900494114 0)" font-family="Helvetica Neue, Helvetica, Arial, sans-serif">PARENT_OF</text></g></g><g class="layer nodes"><g class="node" aria-label="graph-node4" transform="translate(-232.08370181328405,29.32821429979691)"><circle class="b-outline" cx="0" cy="0" r="25" fill="#57C7E3" stroke="#23b3d7" stroke-width="2px"/><text class="caption" text-anchor="middle" pointer-events="none" x="0" y="5" font-size="10px" fill="#2A2C34" font-family="Helvetica Neue, Helvetica, Arial, sans-serif"> John</text></g><g class="node" aria-label="graph-node5" transform="translate(-161.19142544398255,-82.73067201309135)"><circle class="b-outline" cx="0" cy="0" r="25" fill="#57C7E3" stroke="#23b3d7" stroke-width="2px"/><text class="caption" text-anchor="middle" pointer-events="none" x="0" y="5" font-size="10px" fill="#2A2C34" font-family="Helvetica Neue, Helvetica, Arial, sans-serif"> Mary</text></g><g class="node" aria-label="graph-node6" transform="translate(1.025463388313284,-65.11942440107322)"><circle class="b-outline" cx="0" cy="0" r="25" fill="#57C7E3" stroke="#23b3d7" stroke-width="2px"/><text class="caption" text-anchor="middle" pointer-events="none" x="0" y="5" font-size="10px" fill="#2A2C34" font-family="Helvetica Neue, Helvetica, Arial, sans-serif"> Peter</text></g><g class="node" aria-label="graph-node7" transform="translate(-132.3475843878307,138.36648562273223)"><circle class="b-outline" cx="0" cy="0" r="25" fill="#57C7E3" stroke="#23b3d7" stroke-width="2px"/><text class="caption" text-anchor="middle" pointer-events="none" x="0" y="5" font-size="10px" fill="#2A2C34" font-family="Helvetica Neue, Helvetica, Arial, sans-serif"> Anna</text></g><g class="node" aria-label="graph-node8" transform="translate(109.96456265110447,-117.44188895634738)"><circle class="b-outline" cx="0" cy="0" r="25" fill="#57C7E3" stroke="#23b3d7" stroke-width="2px"/><text class="caption" text-anchor="middle" pointer-events="none" x="0" y="5" font-size="10px" fill="#2A2C34" font-family="Helvetica Neue, Helvetica, Arial, sans-serif"> Luke</text></g><g class="node" aria-label="graph-node9" transform="translate(-66.12168333692924,-139.70175914651298)"><circle class="b-outline" cx="0" cy="0" r="25" fill="#57C7E3" stroke="#23b3d7" stroke-width="2px"/><text class="caption" text-anchor="middle" pointer-events="none" x="0" y="5" font-size="10px" fill="#2A2C34" font-family="Helvetica Neue, Helvetica, Arial, sans-serif"> Julia</text></g><g class="node" aria-label="graph-node10" transform="translate(-214.91587806087233,176.5343494964452)"><circle class="b-outline" cx="0" cy="0" r="25" fill="#57C7E3" stroke="#23b3d7" stroke-width="2px"/><text class="caption" text-anchor="middle" pointer-events="none" x="0" y="5" font-size="10px" fill="#2A2C34" font-family="Helvetica Neue, Helvetica, Arial, sans-serif"> Charles</text></g><g class="node" aria-label="graph-node11" transform="translate(-2.198802579253936,120.70922537695458)"><circle class="b-outline" cx="0" cy="0" r="25" fill="#57C7E3" stroke="#23b3d7" stroke-width="2px"/><text class="caption" text-anchor="middle" pointer-events="none" x="0" y="5" font-size="10px" fill="#2A2C34" font-family="Helvetica Neue, Helvetica, Arial, sans-serif"> Clara</text></g><g class="node" aria-label="graph-node12" transform="translate(84.530445745776,44.43679613663885)"><circle class="b-outline" cx="0" cy="0" r="25" fill="#F16667" stroke="#eb2728" stroke-width="2px"/><text class="caption" text-anchor="middle" pointer-events="none" x="0" y="5" font-size="10px" fill="#FFFFFF" font-family="Helvetica Neue, Helvetica, Arial, sans-serif"> Rex</text></g><g class="node" aria-label="graph-node13" transform="translate(-27.583315559662342,183.12957640172596)"><circle class="b-outline" cx="0" cy="0" r="25" fill="#F16667" stroke="#eb2728" stroke-width="2px"/><text class="caption" text-anchor="middle" pointer-events="none" x="0" y="5" font-size="10px" fill="#FFFFFF" font-family="Helvetica Neue, Helvetica, Arial, sans-serif"> Luna</text></g></g></svg>